<svg width="123" height="123" viewBox="0 0 123 123" fill="none" xmlns="http://www.w3.org/2000/svg">
<g clip-path="url(#clip0_404_206)">
<path fill-rule="evenodd" clip-rule="evenodd" d="M61.44 0C73.5917 0 85.4705 3.60339 95.5742 10.3545C105.678 17.1056 113.553 26.7012 118.203 37.9279C122.853 49.1546 124.07 61.5082 121.699 73.4263C119.329 85.3445 113.477 96.2921 104.885 104.885C96.2921 113.477 85.3445 119.329 73.4263 121.699C61.5082 124.07 49.1546 122.853 37.9279 118.203C26.7012 113.553 17.1056 105.678 10.3545 95.5742C3.60339 85.4705 0 73.5917 0 61.44C0 45.1451 6.47312 29.5176 17.9954 17.9954C29.5176 6.47312 45.1451 0 61.44 0Z" fill="#1777F1"/>
<path fill-rule="evenodd" clip-rule="evenodd" d="M32.5 53.3901H43.06C43.6364 53.3927 44.1884 53.6236 44.595 54.0321C45.0017 54.4406 45.23 54.9936 45.23 55.5701V84.5201C45.2274 85.0957 44.9983 85.6472 44.5921 86.0552C44.186 86.4631 43.6356 86.6948 43.06 86.7001H32.5C31.9226 86.6974 31.3697 86.4669 30.9614 86.0587C30.5532 85.6504 30.3226 85.0974 30.32 84.5201V55.5701C30.3226 54.9927 30.5532 54.4397 30.9614 54.0315C31.3697 53.6232 31.9226 53.3927 32.5 53.3901ZM60.2 31.6801C61.34 25.8601 70.86 31.2201 71.49 40.5901C71.6306 43.9208 71.3586 47.2562 70.68 50.5201H84.29C89.94 50.7501 94.88 54.8001 91.39 61.4501C92.19 64.3501 92.31 67.7501 90.15 69.1001C90.42 73.6701 89.15 76.5101 86.78 78.7501C86.7349 80.8359 86.1193 82.8695 85 84.6301C83.17 87.2101 81.69 86.6301 78.81 86.6301H55.81C52.17 86.6301 50.19 85.6301 47.81 82.6301V57.0001C54.72 55.1701 58.36 45.8001 60.2 39.6501V31.6501V31.6801Z" fill="white"/>
</g>
<defs>
<clipPath id="clip0_404_206">
<rect width="122.88" height="122.88" fill="white"/>
</clipPath>
</defs>
</svg>
