<svg width="800" height="800" viewBox="0 0 800 800" fill="none" xmlns="http://www.w3.org/2000/svg">
<g clip-path="url(#clip0_405_222)">
<path fill-rule="evenodd" clip-rule="evenodd" d="M682.157 470.588H635.098V517.647C661.027 517.647 682.157 538.73 682.157 564.706C682.157 590.682 661.027 611.765 635.098 611.765H588.039V658.823C613.968 658.823 635.098 679.906 635.098 705.883C635.098 731.859 613.969 752.941 588.04 752.941H188.04C123.192 752.941 70.392 700.188 70.392 635.294V376.47H114.816C173.216 376.47 229.122 352.47 268.274 310.73C324.369 250.87 390.533 158.023 398.91 47.0583H414.063C435.098 47.0583 454.91 56.3763 468.369 72.6583C481.969 89.1292 487.475 110.635 483.427 131.623C473.969 181.035 458.345 229.976 437.075 277.082C427.146 298.964 429.028 324 441.969 344.14C455.051 364.376 477.263 376.47 501.404 376.47H682.157C708.087 376.47 729.216 397.552 729.216 423.529C729.216 449.505 708.087 470.588 682.157 470.588M776.275 423.529C776.275 371.623 734.063 329.411 682.157 329.411H501.404C493.216 329.411 485.969 325.505 481.546 318.635C477.216 311.906 476.604 303.811 479.946 296.47C502.722 246.023 519.475 193.505 529.687 140.423C536.322 105.6 527.239 69.9762 504.651 42.6821C482.204 15.5767 449.169 0 414.063 0H352.745V23.5292C352.745 129.553 288.133 220.706 233.969 278.541C203.663 310.823 160.227 329.412 114.816 329.412H23.3333V635.294C23.3333 726.118 97.2158 800 188.039 800H588.039C639.945 800 682.157 757.788 682.157 705.883C682.157 686.541 676.274 668.517 666.251 653.553C702.863 640.659 729.216 605.694 729.216 564.706C729.216 545.365 723.333 527.341 713.31 512.377C749.922 499.482 776.274 464.517 776.274 423.53" fill="#A9A9A9"/>
</g>
<defs>
<clipPath id="clip0_405_222">
<rect width="800" height="800" fill="white"/>
</clipPath>
</defs>
</svg>
