<svg width="800" height="800" viewBox="0 0 800 800" fill="none" xmlns="http://www.w3.org/2000/svg">
<path fill-rule="evenodd" clip-rule="evenodd" d="M33.3333 616.96C33.3333 438.93 163.39 292.366 333.332 261.533V183.706C333.332 121.296 405.113 86.1876 454.377 124.505L732.473 340.8C771.077 370.827 771.08 429.173 732.473 459.203L454.38 675.497C405.113 713.813 333.333 678.707 333.333 616.293V550.63C258.035 565.083 198.75 603.857 164.259 656.127C144.407 686.21 110.189 692.45 85.3216 685.45C60.1576 678.37 33.3369 654.353 33.3333 616.96ZM413.447 177.128C407.973 172.871 399.997 176.772 399.997 183.706V313.891C399.997 318.493 396.243 322.212 391.643 322.336C269.698 325.612 165.925 400.383 122.186 505.52C115.604 521.34 110.382 537.847 106.661 554.903C102.518 573.9 100.238 593.573 100.018 613.733C100.006 614.807 99.9999 615.883 99.9999 616.96C100 621.457 106.139 623.16 108.615 619.407C109.156 618.59 109.7 617.773 110.249 616.96C110.249 616.96 110.249 616.96 110.249 616.96C121.149 600.813 133.686 585.883 147.665 572.267C157.162 563.017 167.325 554.377 178.092 546.373C235.294 503.86 309.547 479.41 391.653 477.857C396.257 477.77 400 481.51 400 486.113V616.293C400 623.23 407.977 627.13 413.45 622.873L691.543 406.577C695.833 403.243 695.833 396.76 691.543 393.423L413.447 177.128Z" fill="#A9A9A9"/>
</svg>
